<?xml version="1.0" encoding="iso-8859-1"?>
<!-- Generator: Adobe Illustrator 19.0.0, SVG Export Plug-In . SVG Version: 6.00 Build 0)  -->
<svg version="1.1" id="Capa_1" xmlns="http://www.w3.org/2000/svg" xmlns:xlink="http://www.w3.org/1999/xlink" x="0px" y="0px"
	 viewBox="0 0 512 512" style="enable-background:new 0 0 512 512;" xml:space="preserve">
<linearGradient id="SVGID_1_" gradientUnits="userSpaceOnUse" x1="258.4823" y1="512.8687" x2="258.4823" y2="-3.2983" gradientTransform="matrix(0.9919 0 0 -0.9919 -0.3956 508.7284)">
	<stop  offset="0" style="stop-color:#2AF598"/>
	<stop  offset="1" style="stop-color:#009EFD"/>
</linearGradient>
<path style="fill:url(#SVGID_1_);" d="M510.098,0l-29.327,15.3c-1.029,0.536-104.635,53.507-261.307,53.507h-19.839V335.49
	c-16.278-12.077-36.415-19.23-58.193-19.23c-53.966,0-97.87,43.905-97.87,97.87S87.466,512,141.432,512s97.87-43.905,97.87-97.87
	V201.874c111.059-2.781,191.02-28.375,231.119-44.634v114.568c-16.278-12.077-36.415-19.23-58.193-19.23
	c-53.966,0-97.87,43.905-97.87,97.869s43.905,97.87,97.87,97.87s97.87-43.905,97.87-97.87V0 M141.432,472.323
	c-32.088,0-58.192-26.106-58.192-58.193s26.106-58.193,58.192-58.193c32.088,0,58.193,26.106,58.193,58.193
	S173.52,472.323,141.432,472.323z M470.091,114.149c-11.185,5.104-31.241,13.424-58.996,21.673
	c-37.606,11.177-96.852,24.328-171.793,26.356v-53.958c108.305-2.889,189.928-28.798,230.789-44.93V114.149z M412.228,408.64
	c-32.088,0-58.193-26.106-58.193-58.193s26.106-58.193,58.193-58.193s58.193,26.106,58.193,58.193S444.316,408.64,412.228,408.64z
	 M57.32,248.74c-13.452-7.872-55.419-36.329-55.419-63.03c0-19.683,13.323-31.795,29.758-31.795
	c22.914,0,29.758,16.771,29.758,23.361c0-6.589,6.844-23.361,29.758-23.361c16.435,0,29.758,12.112,29.758,31.795
	c0,26.7-41.969,55.158-55.421,63.03c-1.27,0.743-4.095,2.384-4.095,2.384S58.59,249.483,57.32,248.74z M82.248,25.546
	c0-13.256,8.882-21.414,19.839-21.414c15.276,0,19.839,11.295,19.839,15.733c0-4.438,4.563-15.733,19.839-15.733
	c10.957,0,19.839,8.158,19.839,21.414c0,17.982-27.98,37.147-36.947,42.449c-0.846,0.5-2.73,1.605-2.73,1.605
	s-1.885-1.105-2.731-1.605C110.226,62.694,82.248,43.528,82.248,25.546z"/>
<g>
</g>
<g>
</g>
<g>
</g>
<g>
</g>
<g>
</g>
<g>
</g>
<g>
</g>
<g>
</g>
<g>
</g>
<g>
</g>
<g>
</g>
<g>
</g>
<g>
</g>
<g>
</g>
<g>
</g>
</svg>
